<svg width="254" height="23" viewBox="0 0 254 23" fill="none" xmlns="http://www.w3.org/2000/svg">
<path fill-rule="evenodd" clip-rule="evenodd" d="M0 0H12.6955L9.84521 8.7724H0.621364L8.08361 14.194L5.23328 22.9664L12.6955 17.5448L20.1578 22.9664L17.3075 14.194L24.7697 8.7724H15.5459L12.6955 0H254V23H0V0ZM40.9369 8.77242L38.0866 2.59144e-05L35.2363 8.77242H26.0124L33.4747 14.1941L30.6243 22.9665L38.0866 17.5448L45.5488 22.9665L42.6985 14.1941L50.1608 8.77242H40.9369ZM63.4777 2.59144e-05L66.328 8.77242H75.5518L68.0896 14.1941L70.9399 22.9665L63.4777 17.5448L56.0154 22.9665L58.8657 14.1941L51.4035 8.77242H60.6273L63.4777 2.59144e-05ZM91.719 8.77242L88.8687 2.59144e-05L86.0184 8.77242H76.7945L84.2568 14.1941L81.4065 22.9665L88.8687 17.5448L96.331 22.9665L93.4806 14.1941L100.943 8.77242H91.719ZM114.26 2.59144e-05L117.11 8.77242H126.334L118.872 14.1941L121.722 22.9665L114.26 17.5448L106.798 22.9665L109.648 14.1941L102.186 8.77242H111.409L114.26 2.59144e-05ZM142.501 8.77242L139.651 2.59144e-05L136.801 8.77242H127.577L135.039 14.1941L132.189 22.9665L139.651 17.5448L147.113 22.9665L144.263 14.1941L151.725 8.77242H142.501ZM165.042 2.59144e-05L167.892 8.77242H177.116L169.654 14.1941L172.504 22.9665L165.042 17.5448L157.58 22.9665L160.43 14.1941L152.968 8.77242H162.192L165.042 2.59144e-05ZM193.283 8.77242L190.433 2.59144e-05L187.583 8.77242H178.359L185.821 14.1941L182.971 22.9665L190.433 17.5448L197.895 22.9665L195.045 14.1941L202.507 8.77242H193.283ZM215.824 2.59144e-05L218.674 8.77242H227.898L220.436 14.1941L223.286 22.9665L215.824 17.5448L208.362 22.9665L211.212 14.1941L203.75 8.77242H212.974L215.824 2.59144e-05ZM244.065 8.77242L241.215 2.59144e-05L238.365 8.77242H229.141L236.603 14.1941L233.753 22.9665L241.215 17.5448L248.677 22.9665L245.827 14.1941L253.289 8.77242H244.065Z" fill="black"/>
</svg>
