<svg width="261" height="31" viewBox="0 0 261 31" fill="none" xmlns="http://www.w3.org/2000/svg">
<path fill-rule="evenodd" clip-rule="evenodd" d="M0 0H4H257H261V31H257H4H0V0ZM13.8027 12.7723L16.6418 4L19.481 12.7723H28.6686L21.2357 18.1941L24.0748 26.9664L16.6418 21.5448L9.20883 26.9664L12.048 18.1941L4.61499 12.7723H13.8027ZM41.9333 4L39.0941 12.7723H29.9065L37.3394 18.1941L34.5003 26.9664L41.9333 21.5448L49.3663 26.9664L46.5271 18.1941L53.9601 12.7723H44.7724L41.9333 4ZM64.3856 12.7723L67.2248 4L70.0639 12.7723H79.2516L71.8186 18.1941L74.6578 26.9664L67.2248 21.5448L59.7918 26.9664L62.631 18.1941L55.198 12.7723H64.3856ZM92.5163 4L89.6771 12.7723H80.4894L87.9224 18.1941L85.0833 26.9664L92.5163 21.5448L99.9492 26.9664L97.1101 18.1941L104.543 12.7723H95.3554L92.5163 4ZM114.969 12.7723L117.808 4L120.647 12.7723H129.835L122.402 18.1941L125.241 26.9664L117.808 21.5448L110.375 26.9664L113.214 18.1941L105.781 12.7723H114.969ZM143.099 4L140.26 12.7723H131.072L138.505 18.1941L135.666 26.9664L143.099 21.5448L150.532 26.9664L147.693 18.1941L155.126 12.7723H145.938L143.099 4ZM165.552 12.7723L168.391 4L171.23 12.7723H180.418L172.985 18.1941L175.824 26.9664L168.391 21.5448L160.958 26.9664L163.797 18.1941L156.364 12.7723H165.552ZM193.682 4L190.843 12.7723H181.655L189.088 18.1941L186.249 26.9664L193.682 21.5448L201.115 26.9664L198.276 18.1941L205.709 12.7723H196.521L193.682 4ZM216.135 12.7723L218.974 4L221.813 12.7723H231.001L223.568 18.1941L226.407 26.9664L218.974 21.5448L211.541 26.9664L214.38 18.1941L206.947 12.7723H216.135ZM244.265 4L241.426 12.7723H232.238L239.671 18.1941L236.832 26.9664L244.265 21.5448L251.698 26.9664L248.859 18.1941L256.292 12.7723H247.104L244.265 4Z" fill="black"/>
</svg>
