<svg width="181" height="101" viewBox="0 0 181 101" fill="none" xmlns="http://www.w3.org/2000/svg">
<path d="M126.804 92.2039C145.622 92.2039 160.875 76.9419 160.875 58.1188C160.875 39.2956 145.622 24.0336 126.804 24.0336C107.986 24.0336 92.7343 39.2956 92.7343 58.1188C92.7343 76.9419 107.986 92.2039 126.804 92.2039Z" stroke="white" stroke-width="6.6493"/>
<path d="M101.229 53.4607H103.78C104.693 53.4607 105.502 53.6537 106.208 54.0399C106.917 54.426 107.472 54.9699 107.873 55.6717C108.278 56.3697 108.48 57.1902 108.48 58.1333C108.48 59.0467 108.278 59.8431 107.873 60.5225C107.472 61.202 106.917 61.7311 106.208 62.1098C105.502 62.4848 104.693 62.6723 103.78 62.6723H101.229C100.312 62.6723 99.4988 62.4867 98.7896 62.1154C98.0805 61.7404 97.5235 61.2131 97.1188 60.5337C96.7178 59.8542 96.5173 59.0522 96.5173 58.1277C96.5173 57.1847 96.7197 56.3641 97.1244 55.6661C97.5328 54.9644 98.0916 54.4223 98.8008 54.0399C99.5099 53.6537 100.319 53.4607 101.229 53.4607ZM101.229 55.4768C100.739 55.4768 100.306 55.5751 99.9313 55.7719C99.56 55.965 99.2704 56.2583 99.0625 56.6519C98.8546 57.0454 98.7506 57.5374 98.7506 58.1277C98.7506 58.6921 98.8565 59.1618 99.0681 59.5368C99.2834 59.9118 99.5767 60.1921 99.948 60.3777C100.319 60.5634 100.746 60.6562 101.229 60.6562H103.796C104.283 60.6562 104.708 60.5615 105.072 60.3722C105.439 60.1828 105.723 59.9006 105.924 59.5256C106.128 59.1506 106.23 58.6865 106.23 58.1333C106.23 57.543 106.128 57.051 105.924 56.6574C105.723 56.2639 105.439 55.9687 105.072 55.7719C104.708 55.5751 104.283 55.4768 103.796 55.4768H101.229ZM103.646 52.0349V64.1092H101.357V52.0349H103.646ZM110.257 52.2354H112.663V59.4087H112.757L117.686 52.2354H119.797V63.6414H117.386V56.4625H117.302L112.345 63.6414H110.257V52.2354ZM121.171 63.6414V61.7032L121.494 61.6754C121.91 61.642 122.246 61.4842 122.502 61.202C122.759 60.9161 122.95 60.4613 123.076 59.8375C123.206 59.21 123.289 58.3672 123.327 57.3091L123.516 52.2354H131.257V63.6414H128.913V54.168H125.755L125.577 58.1389C125.517 59.4161 125.365 60.4594 125.12 61.2688C124.879 62.0782 124.492 62.676 123.961 63.0621C123.434 63.4483 122.712 63.6414 121.795 63.6414H121.171ZM134.833 56.4514H137.551C138.457 56.4514 139.236 56.598 139.89 56.8914C140.547 57.181 141.054 57.5912 141.41 58.1222C141.767 58.6531 141.943 59.2787 141.939 59.999C141.943 60.7156 141.767 61.3487 141.41 61.8982C141.054 62.444 140.547 62.8709 139.89 63.1791C139.236 63.4873 138.457 63.6414 137.551 63.6414H133.29V52.2354H135.696V61.7032H137.551C137.985 61.7032 138.351 61.6253 138.648 61.4693C138.945 61.3097 139.169 61.0999 139.322 60.84C139.478 60.5764 139.554 60.2886 139.55 59.9768C139.554 59.5238 139.383 59.1414 139.038 58.8295C138.696 58.5139 138.2 58.3561 137.551 58.3561H134.833V56.4514ZM143.859 52.2354H146.833L149.974 59.8988H150.108L153.249 52.2354H156.223V63.6414H153.884V56.2175H153.789L150.838 63.5857H149.245L146.293 56.1896H146.198V63.6414H143.859V52.2354Z" fill="#CF0000"/>
<path d="M168.691 57.9384C168.691 59.1822 168.456 60.2404 167.984 61.1129C167.516 61.9854 166.878 62.6519 166.068 63.1123C165.263 63.569 164.357 63.7973 163.35 63.7973C162.337 63.7973 161.427 63.5671 160.621 63.1067C159.816 62.6463 159.179 61.9798 158.711 61.1073C158.243 60.2348 158.009 59.1785 158.009 57.9384C158.009 56.6946 158.243 55.6364 158.711 54.7639C159.179 53.8914 159.816 53.2268 160.621 52.7701C161.427 52.3097 162.337 52.0795 163.35 52.0795C164.357 52.0795 165.263 52.3097 166.068 52.7701C166.878 53.2268 167.516 53.8914 167.984 54.7639C168.456 55.6364 168.691 56.6946 168.691 57.9384ZM166.246 57.9384C166.246 57.1327 166.126 56.4532 165.884 55.9C165.647 55.3468 165.311 54.9272 164.876 54.6414C164.442 54.3555 163.933 54.2125 163.35 54.2125C162.767 54.2125 162.259 54.3555 161.824 54.6414C161.39 54.9272 161.052 55.3468 160.811 55.9C160.573 56.4532 160.454 57.1327 160.454 57.9384C160.454 58.7441 160.573 59.4235 160.811 59.9768C161.052 60.53 161.39 60.9495 161.824 61.2354C162.259 61.5213 162.767 61.6643 163.35 61.6643C163.933 61.6643 164.442 61.5213 164.876 61.2354C165.311 60.9495 165.647 60.53 165.884 59.9768C166.126 59.4235 166.246 58.7441 166.246 57.9384ZM170.478 63.6414V52.2354H175.045C175.884 52.2354 176.584 52.3598 177.144 52.6086C177.705 52.8573 178.126 53.2026 178.408 53.6445C178.691 54.0826 178.832 54.5875 178.832 55.1593C178.832 55.6048 178.743 55.9966 178.564 56.3344C178.386 56.6686 178.141 56.9433 177.829 57.1587C177.521 57.3703 177.168 57.5207 176.771 57.6098V57.7212C177.205 57.7397 177.612 57.8623 177.991 58.0888C178.373 58.3152 178.683 58.6327 178.921 59.0411C179.158 59.4458 179.277 59.9285 179.277 60.4891C179.277 61.0943 179.127 61.6346 178.826 62.1098C178.529 62.5813 178.089 62.9545 177.506 63.2292C176.923 63.504 176.205 63.6414 175.351 63.6414H170.478ZM172.889 61.6698H174.855C175.527 61.6698 176.017 61.5417 176.326 61.2855C176.634 61.0256 176.788 60.6803 176.788 60.2496C176.788 59.9341 176.712 59.6556 176.559 59.4143C176.407 59.1729 176.19 58.9836 175.908 58.8462C175.629 58.7088 175.297 58.6401 174.911 58.6401H172.889V61.6698ZM172.889 57.0083H174.677C175.007 57.0083 175.301 56.9508 175.557 56.8357C175.817 56.7169 176.021 56.5498 176.17 56.3344C176.322 56.1191 176.398 55.861 176.398 55.5603C176.398 55.1482 176.251 54.8159 175.958 54.5634C175.668 54.3109 175.256 54.1847 174.722 54.1847H172.889V57.0083Z" fill="white"/>
<path fill-rule="evenodd" clip-rule="evenodd" d="M164.005 54.2777C163.799 54.2333 163.581 54.2112 163.351 54.2112C162.768 54.2112 162.26 54.3541 161.825 54.64C161.391 54.9259 161.053 55.3455 160.812 55.8987C160.574 56.4519 160.455 57.1313 160.455 57.937C160.455 58.7427 160.574 59.4222 160.812 59.9754C161.053 60.5286 161.391 60.9482 161.825 61.2341C162.26 61.52 162.768 61.6629 163.351 61.6629C163.594 61.6629 163.824 61.6381 164.041 61.5885C163.973 62.3261 163.884 63.0575 163.774 63.7821C163.635 63.7913 163.494 63.7959 163.351 63.7959C162.338 63.7959 161.428 63.5657 160.622 63.1054C159.817 62.645 159.18 61.9785 158.712 61.106C158.244 60.2334 158.01 59.1771 158.01 57.937C158.01 56.6932 158.244 55.6351 158.712 54.7625C159.18 53.89 159.817 53.2254 160.622 52.7687C161.428 52.3083 162.338 52.0781 163.351 52.0781C163.475 52.0781 163.597 52.0816 163.717 52.0885C163.834 52.8115 163.93 53.5414 164.005 54.2777Z" fill="black"/>
<rect x="79.2344" y="62.0681" width="6.65092" height="11.3773" transform="rotate(-90 79.2344 62.0681)" fill="white"/>
<rect x="15.7955" y="63.7142" width="9.97637" height="67.0602" transform="rotate(-90 15.7955 63.7142)" fill="white"/>
<path d="M23.5849 48.0126H21.8915L16.8271 42.3339V48.0126H15.4159V36.8121H16.8271V42.2398L21.7661 36.8121H23.3654L18.5048 42.2554L23.5849 48.0126ZM32.1327 48.0126L30.7843 44.5457H26.347L25.0143 48.0126H23.5875L27.962 36.765H29.232L33.5909 48.0126H32.1327ZM29.1066 39.9024C29.0752 39.8187 29.023 39.6671 28.9498 39.4475C28.8766 39.2279 28.8034 39.003 28.7303 38.7729C28.6676 38.5324 28.6153 38.3494 28.5735 38.2239C28.5212 38.433 28.4637 38.6474 28.401 38.8671C28.3487 39.0762 28.2913 39.2697 28.2285 39.4475C28.1763 39.6253 28.1292 39.7769 28.0874 39.9024L26.8174 43.2908H30.3609L29.1066 39.9024ZM37.5634 48.0126H36.1522V38.0513H32.6557V36.8121H41.0442V38.0513H37.5634V48.0126ZM48.6542 48.0126L47.3058 44.5457H42.8685L41.5358 48.0126H40.1089L44.4835 36.765H45.7535L50.1124 48.0126H48.6542ZM45.6281 39.9024C45.5967 39.8187 45.5445 39.6671 45.4713 39.4475C45.3981 39.2279 45.3249 39.003 45.2518 38.7729C45.1891 38.5324 45.1368 38.3494 45.095 38.2239C45.0427 38.433 44.9852 38.6474 44.9225 38.8671C44.8702 39.0762 44.8127 39.2697 44.75 39.4475C44.6978 39.6253 44.6507 39.7769 44.6089 39.9024L43.3389 43.2908H46.8824L45.6281 39.9024ZM59.703 48.0126H58.2918V38.0513H54.7483C54.6751 38.6265 54.5967 39.2331 54.5131 39.871C54.4295 40.4985 54.3406 41.1208 54.2466 41.7378C54.1629 42.3548 54.0793 42.9352 53.9957 43.479C53.9121 44.0228 53.8285 44.4987 53.7448 44.9065C53.6089 45.6072 53.4417 46.2033 53.2431 46.6949C53.0445 47.1864 52.7779 47.5576 52.4434 47.8086C52.1194 48.0596 51.6908 48.1851 51.1577 48.1851C50.98 48.1851 50.7971 48.1642 50.609 48.1224C50.4313 48.091 50.2745 48.0492 50.1386 47.9969V46.8204C50.2536 46.8726 50.3842 46.9197 50.5306 46.9615C50.6769 46.9929 50.8337 47.0086 51.0009 47.0086C51.3145 47.0086 51.5602 46.8831 51.7379 46.6321C51.926 46.3707 52.0724 46.0517 52.1769 45.6752C52.2814 45.2883 52.3703 44.9065 52.4434 44.5301C52.5062 44.2268 52.5793 43.8241 52.663 43.3222C52.7466 42.8097 52.8354 42.2136 52.9295 41.5338C53.034 40.8541 53.1386 40.1168 53.2431 39.322C53.3581 38.5167 53.4678 37.6801 53.5724 36.8121H59.703V48.0126ZM72.5131 42.3966C72.5131 43.2646 72.4034 44.0542 72.1839 44.7654C71.9643 45.466 71.6351 46.0726 71.1961 46.585C70.7675 47.0975 70.2292 47.4897 69.5811 47.7616C68.9435 48.0335 68.2013 48.1694 67.3546 48.1694C66.4766 48.1694 65.7135 48.0335 65.0654 47.7616C64.4174 47.4792 63.879 47.087 63.4505 46.585C63.0219 46.0726 62.7031 45.4608 62.494 44.7497C62.285 44.0385 62.1804 43.249 62.1804 42.3809C62.1804 41.2306 62.3686 40.2266 62.7449 39.369C63.1212 38.5115 63.6909 37.8422 64.4539 37.3611C65.2275 36.88 66.1996 36.6395 67.3703 36.6395C68.4888 36.6395 69.4295 36.88 70.1926 37.3611C70.9556 37.8317 71.5306 38.501 71.9173 39.369C72.3145 40.2266 72.5131 41.2358 72.5131 42.3966ZM63.67 42.3966C63.67 43.3378 63.8006 44.1483 64.062 44.8281C64.3233 45.5079 64.7257 46.0308 65.2693 46.3968C65.8233 46.7628 66.5184 46.9459 67.3546 46.9459C68.2013 46.9459 68.8912 46.7628 69.4243 46.3968C69.9678 46.0308 70.3703 45.5079 70.6316 44.8281C70.8929 44.1483 71.0236 43.3378 71.0236 42.3966C71.0236 40.9848 70.7309 39.8815 70.1455 39.0867C69.5602 38.2814 68.6351 37.8788 67.3703 37.8788C66.5236 37.8788 65.8233 38.0618 65.2693 38.4278C64.7257 38.7834 64.3233 39.3011 64.062 39.9808C63.8006 40.6501 63.67 41.4554 63.67 42.3966ZM81.3132 36.8121V38.067H76.4055V48.0126H74.9944V36.8121H81.3132Z" fill="white"/>
</svg>
