<svg width="199" height="200" viewBox="0 0 199 200" fill="none" xmlns="http://www.w3.org/2000/svg">
<g opacity="0.3">
<path d="M154.861 104.121C168.167 90.8152 168.16 69.2384 154.85 55.9284C141.54 42.6184 119.964 42.6115 106.657 55.9178C93.3511 69.2241 93.358 90.8009 106.668 104.111C119.978 117.421 141.555 117.428 154.861 104.121Z" stroke="black" stroke-width="6.6493"/>
<path d="M109.381 94.8104L111.185 93.0067C111.83 92.3609 112.539 91.9251 113.311 91.6993C114.086 91.4709 114.863 91.463 115.642 91.6757C116.422 91.8831 117.145 92.3202 117.812 92.987C118.458 93.6329 118.878 94.3391 119.073 95.1057C119.269 95.8697 119.251 96.6363 119.017 97.4056C118.784 98.1696 118.344 98.8745 117.698 99.5203L115.894 101.324C115.246 101.972 114.54 102.416 113.776 102.655C113.009 102.891 112.243 102.912 111.476 102.718C110.712 102.521 110.003 102.096 109.349 101.442C108.683 100.775 108.245 100.052 108.038 99.2722C107.831 98.4873 107.842 97.7088 108.073 96.937C108.302 96.1625 108.738 95.4536 109.381 94.8104ZM110.806 96.236C110.46 96.5825 110.224 96.958 110.098 97.3623C109.972 97.7613 109.974 98.1735 110.105 98.5988C110.237 99.0241 110.511 99.4455 110.929 99.863C111.328 100.262 111.735 100.519 112.149 100.635C112.567 100.748 112.972 100.739 113.366 100.607C113.76 100.476 114.128 100.24 114.469 99.8984L116.284 98.0829C116.628 97.739 116.862 97.3715 116.985 96.9803C117.111 96.5865 117.113 96.1861 116.989 95.7792C116.869 95.3696 116.613 94.9692 116.221 94.578C115.804 94.1606 115.384 93.8849 114.961 93.751C114.541 93.6145 114.132 93.6066 113.732 93.7274C113.336 93.8456 112.966 94.0766 112.622 94.4205L110.806 96.236ZM110.082 92.0931L118.62 100.631L117.001 102.249L108.463 93.7117L110.082 92.0931ZM114.898 87.5604L116.599 85.8591L121.672 90.9314L121.739 90.8644L120.152 82.3069L121.644 80.8144L129.709 88.8796L128.004 90.5848L122.928 85.5086L122.869 85.5677L124.44 94.1488L122.963 95.6256L114.898 87.5604ZM130.681 87.9079L129.311 86.5374L129.519 86.2893C129.79 85.9717 129.916 85.6225 129.897 85.2418C129.876 84.8585 129.69 84.4017 129.338 83.8713C128.986 83.3358 128.449 82.6807 127.727 81.9062L124.274 78.1847L129.748 72.7108L137.813 80.776L136.155 82.4339L129.456 75.7352L127.223 77.9681L129.905 80.902C130.766 81.8472 131.396 82.6925 131.796 83.4382C132.197 84.1811 132.347 84.8769 132.244 85.5253C132.145 86.1712 131.771 86.8184 131.122 87.4668L130.681 87.9079ZM135.257 73.1637L137.179 71.2419C137.819 70.6013 138.475 70.1536 139.144 69.899C139.813 69.6391 140.462 69.5708 141.089 69.6942C141.717 69.8176 142.284 70.1353 142.791 70.6472C143.3 71.1513 143.623 71.7236 143.759 72.3642C143.893 73.0022 143.837 73.6625 143.59 74.3451C143.346 75.0251 142.904 75.6854 142.263 76.326L139.25 79.3386L131.185 71.2734L132.886 69.5721L139.581 76.2669L140.893 74.9555C141.2 74.6483 141.403 74.3346 141.503 74.0143C141.6 73.6914 141.611 73.3842 141.534 73.0928C141.458 72.7961 141.309 72.5388 141.085 72.3209C140.768 71.998 140.377 71.8483 139.912 71.872C139.447 71.8903 138.985 72.1293 138.526 72.5887L136.604 74.5105L135.257 73.1637ZM138.659 63.7999L140.762 61.6969L148.401 64.8947L148.496 64.8001L145.298 57.1602L147.401 55.0573L155.466 63.1225L153.812 64.7765L148.563 59.527L148.496 59.594L151.619 66.8913L150.493 68.0176L143.176 64.875L143.109 64.9419L148.378 70.2111L146.724 71.8651L138.659 63.7999Z" fill="#CF0000"/>
<path d="M160.25 50.2735C161.13 51.153 161.711 52.068 161.995 53.0183C162.281 53.9661 162.301 54.8889 162.054 55.7868C161.807 56.6795 161.328 57.4815 160.616 58.193C159.9 58.9097 159.094 59.3902 158.198 59.6343C157.303 59.8785 156.382 59.8575 155.434 59.5713C154.486 59.2852 153.574 58.7036 152.697 57.8268C151.817 56.9473 151.235 56.0336 150.948 55.0858C150.662 54.1381 150.643 53.2179 150.889 52.3252C151.134 51.43 151.614 50.624 152.331 49.9073C153.042 49.1958 153.846 48.7179 154.741 48.4738C155.636 48.2244 156.558 48.2427 157.505 48.5289C158.456 48.8125 159.371 49.394 160.25 50.2735ZM158.521 52.0023C157.952 51.4326 157.386 51.0375 156.824 50.817C156.265 50.5938 155.731 50.5347 155.221 50.6397C154.712 50.7448 154.251 51.0034 153.839 51.4155C153.427 51.8277 153.168 52.2885 153.063 52.7978C152.958 53.3071 153.016 53.8427 153.236 54.4046C153.46 54.9638 153.856 55.5282 154.426 56.0979C154.995 56.6676 155.56 57.0641 156.119 57.2872C156.681 57.5078 157.217 57.5655 157.726 57.4605C158.235 57.3555 158.696 57.0969 159.108 56.6847C159.52 56.2725 159.779 55.8118 159.884 55.3024C159.989 54.7931 159.93 54.2588 159.707 53.6996C159.486 53.1378 159.091 52.572 158.521 52.0023ZM165.546 53.043L157.481 44.9777L160.71 41.7485C161.303 41.1552 161.886 40.7482 162.459 40.5277C163.031 40.3072 163.573 40.2533 164.085 40.3662C164.594 40.4765 165.051 40.7338 165.455 41.1381C165.77 41.4531 165.984 41.7931 166.097 42.1581C166.208 42.5204 166.229 42.8879 166.16 43.2607C166.092 43.6283 165.949 43.984 165.731 44.328L165.81 44.4067C166.13 44.1127 166.504 43.9118 166.932 43.8042C167.363 43.6939 167.806 43.6992 168.263 43.8199C168.717 43.9381 169.143 44.1954 169.539 44.5918C169.967 45.0197 170.243 45.5081 170.366 46.0568C170.49 46.6002 170.442 47.1752 170.224 47.7817C170.007 48.3881 169.596 48.9933 168.992 49.5971L165.546 53.043ZM165.857 49.9437L167.247 48.5535C167.722 48.0783 167.978 47.6412 168.015 47.2421C168.049 46.8405 167.914 46.4873 167.61 46.1828C167.386 45.9596 167.136 45.8166 166.857 45.7535C166.579 45.6905 166.292 45.7102 165.995 45.8126C165.701 45.9124 165.417 46.0988 165.144 46.3718L163.715 47.8014L165.857 49.9437ZM162.561 46.6475L163.825 45.3834C164.059 45.1497 164.225 44.9016 164.325 44.6391C164.425 44.3713 164.451 44.1087 164.404 43.8514C164.359 43.5915 164.231 43.3552 164.018 43.1426C163.727 42.8512 163.388 42.7199 163.002 42.7488C162.619 42.775 162.238 42.9772 161.86 43.3552L160.564 44.6509L162.561 46.6475Z" fill="black"/>
<path fill-rule="evenodd" clip-rule="evenodd" d="M154.348 50.9985C154.171 51.1132 154.001 51.2517 153.839 51.414C153.427 51.8262 153.168 52.287 153.063 52.7963C152.958 53.3056 153.016 53.8412 153.236 54.403C153.459 54.9623 153.856 55.5267 154.426 56.0964C154.995 56.6661 155.56 57.0626 156.119 57.2857C156.681 57.5063 157.216 57.564 157.726 57.459C158.235 57.354 158.696 57.0954 159.108 56.6832C159.28 56.5115 159.425 56.3313 159.543 56.1428C160.017 56.7123 160.471 57.2926 160.905 57.8828C160.814 57.9875 160.717 58.0904 160.616 58.1915C159.899 58.9082 159.093 59.3887 158.198 59.6328C157.303 59.877 156.381 59.856 155.434 59.5698C154.486 59.2837 153.574 58.7021 152.697 57.8252C151.817 56.9457 151.234 56.0321 150.948 55.0843C150.662 54.1366 150.642 53.2164 150.889 52.3237C151.133 51.4285 151.614 50.6225 152.33 49.9057C152.418 49.8185 152.506 49.7348 152.596 49.6546C153.19 50.083 153.775 50.531 154.348 50.9985Z" fill="white"/>
<rect x="99.9149" y="116.449" width="6.65092" height="11.3773" transform="rotate(-135 99.9149 116.449)" fill="black"/>
<rect x="56.2207" y="162.471" width="9.97637" height="67.0602" transform="rotate(-135 56.2207 162.471)" fill="black"/>
<path d="M50.626 145.861L49.4286 147.058L41.832 146.624L45.8475 150.639L44.8497 151.637L36.9297 143.717L37.9275 142.719L41.7655 146.557L41.4199 139.227L42.5508 138.096L42.9629 145.382L50.626 145.861ZM56.6702 139.816L53.2653 138.319L50.1277 141.456L51.6367 144.85L50.6278 145.859L45.7678 134.812L46.6659 133.914L57.7013 138.785L56.6702 139.816ZM48.7956 136.222C48.7143 136.185 48.5701 136.114 48.3631 136.011C48.1561 135.907 47.9453 135.8 47.7309 135.689C47.5165 135.563 47.3501 135.471 47.2318 135.412C47.3427 135.596 47.4537 135.789 47.5646 135.988C47.6756 136.173 47.7717 136.351 47.8531 136.521C47.9419 136.683 48.0158 136.824 48.075 136.942L49.5729 140.236L52.0786 137.731L48.7956 136.222ZM60.5103 135.976L59.5124 136.974L52.4688 129.931L49.9964 132.403L49.1201 131.527L55.0516 125.595L55.9279 126.471L53.4666 128.933L60.5103 135.976ZM68.3526 128.134L64.9477 126.636L61.8101 129.774L63.3192 133.168L62.3102 134.176L57.4503 123.13L58.3483 122.232L69.3837 127.103L68.3526 128.134ZM60.4781 124.539C60.3968 124.502 60.2526 124.432 60.0456 124.328C59.8385 124.225 59.6278 124.117 59.4134 124.006C59.1989 123.881 59.0326 123.788 58.9143 123.729C59.0252 123.914 59.1361 124.106 59.2471 124.306C59.358 124.491 59.4542 124.668 59.5356 124.838C59.6243 125.001 59.6983 125.141 59.7574 125.26L61.2554 128.554L63.761 126.048L60.4781 124.539ZM76.1653 120.321L75.1675 121.319L68.1238 114.276L65.6182 116.781C65.9732 117.24 66.3466 117.724 66.7386 118.234C67.1232 118.737 67.5003 119.24 67.8701 119.743C68.2473 120.238 68.5986 120.708 68.924 121.151C69.2494 121.595 69.5267 121.991 69.756 122.338C70.1554 122.93 70.4586 123.469 70.6657 123.957C70.8729 124.445 70.9469 124.896 70.8879 125.31C70.8362 125.717 70.6219 126.109 70.2449 126.486C70.1193 126.611 69.9751 126.726 69.8125 126.829C69.6647 126.933 69.5242 127.014 69.3912 127.073L68.5592 126.241C68.6775 126.197 68.8032 126.138 68.9363 126.064C69.0619 125.983 69.1839 125.883 69.3021 125.765C69.5239 125.543 69.6088 125.281 69.557 124.977C69.5052 124.659 69.3831 124.33 69.1908 123.99C68.9911 123.643 68.784 123.31 68.5695 122.992C68.3994 122.733 68.1665 122.397 67.8706 121.983C67.5674 121.561 67.2087 121.077 66.7946 120.53C66.3878 119.975 65.9404 119.38 65.4523 118.744C64.9642 118.093 64.4502 117.424 63.9104 116.736L68.2454 112.401L76.1653 120.321ZM81.2524 107.292C81.8662 107.906 82.3469 108.542 82.6945 109.2C83.0348 109.851 83.2308 110.512 83.2827 111.185C83.3421 111.851 83.2387 112.508 82.9727 113.159C82.7141 113.802 82.2855 114.423 81.6868 115.022C81.0659 115.643 80.4302 116.086 79.7797 116.352C79.1217 116.611 78.4638 116.714 77.8058 116.662C77.1404 116.603 76.4824 116.396 75.8317 116.041C75.181 115.686 74.5488 115.201 73.935 114.587C73.1215 113.774 72.5447 112.931 72.2044 112.059C71.8641 111.186 71.7936 110.31 71.993 109.43C72.1998 108.543 72.7171 107.686 73.545 106.858C74.3358 106.067 75.1711 105.572 76.0509 105.372C76.9232 105.166 77.803 105.232 78.6903 105.573C79.5775 105.898 80.4316 106.471 81.2524 107.292ZM74.9993 113.545C75.6649 114.211 76.3304 114.691 76.9958 114.987C77.6613 115.283 78.3156 115.368 78.9588 115.243C79.6093 115.11 80.2303 114.748 80.8216 114.157C81.4203 113.558 81.7787 112.941 81.8968 112.305C82.0223 111.662 81.9372 111.007 81.6413 110.342C81.3454 109.676 80.8647 109.011 80.1991 108.345C79.2008 107.347 78.2137 106.774 77.2378 106.626C76.2544 106.47 75.3156 106.84 74.4213 107.734C73.8226 108.333 73.4568 108.957 73.3238 109.608C73.1909 110.244 73.2724 110.894 73.5683 111.56C73.8568 112.218 74.3338 112.88 74.9993 113.545ZM83.5261 97.1207L84.4135 98.0081L80.9432 101.478L87.9758 108.511L86.978 109.509L79.058 101.589L83.5261 97.1207Z" fill="black"/>
</g>
</svg>
